<svg xmlns="http://www.w3.org/2000/svg" width="550.31" height="47.792" viewBox="0 0 550.31 47.792">
  <g id="グループ化_88" data-name="グループ化 88" transform="translate(1394.211 78.056)">
    <path id="パス_101" data-name="パス 101" d="M-1376.065-52.037q6.571-3.619,12.088-3.619a12.414,12.414,0,0,1,6.777,1.9,8.7,8.7,0,0,1,3.132,3.312,7.619,7.619,0,0,1,.975,3.721,7.8,7.8,0,0,1-3.414,6.622,11,11,0,0,1-6.648,2.054,10.8,10.8,0,0,1-9.317-4.671,9.016,9.016,0,0,1-1.566-2.747c0-.17.1-.256.308-.256a.905.905,0,0,1,.693.36,10.618,10.618,0,0,0,8.213,3.747,7,7,0,0,0,5.16-1.746,6.291,6.291,0,0,0,1.513-4.62,5.132,5.132,0,0,0-2.515-4.774,8.32,8.32,0,0,0-4.21-1q-3.029,0-7.674,2.516-.975.537-3.414,2,.1,3.106.309,6.878.1,1.9.1,2.592a10.84,10.84,0,0,1-.411,3.363q-.975,2.465-2.592,2.464-1.334,0-1.771-1.744a9.461,9.461,0,0,0-1.693-3.594,32.485,32.485,0,0,0-3.055-3.081,27.166,27.166,0,0,0-2.414,2.259,2.8,2.8,0,0,1-2.1,1,4.5,4.5,0,0,1-2.31-.8,3.988,3.988,0,0,1-2.31-3.465,3.548,3.548,0,0,1,.642-2.028c.308-.462.564-.693.77-.693.187,0,.333.137.436.411a4.686,4.686,0,0,0,.564,1.257.8.8,0,0,0,.591.231,2.6,2.6,0,0,0,.308-.026q1.025-.127,5.467-2.566,1.745-1,5.98-3.568,0-1.668-.051-5.724-.027-2.874-.052-4.312a46.879,46.879,0,0,1-5.673.667,6.092,6.092,0,0,1-4.927-2.875,4.576,4.576,0,0,1-1.155-2.566c0-.462.119-.693.36-.693q.28,0,1,.9a4.889,4.889,0,0,0,4,1.874,33.381,33.381,0,0,0,6.442-.873v-5.7a8.336,8.336,0,0,0-.206-2.516,1.258,1.258,0,0,0-.949-1.206,4.4,4.4,0,0,0-1.36-.256q-1.208,0-1.208-.437a1.44,1.44,0,0,1,.848-1.257,4.735,4.735,0,0,1,2.31-.847,6.574,6.574,0,0,1,3.721,1.36q2.26,1.643,2.259,2.9a2.356,2.356,0,0,1-.462,1.411c-.018.018-.147.163-.385.437a3.792,3.792,0,0,0-.411.616,12.894,12.894,0,0,0-.564,4.209,13.962,13.962,0,0,0,3.619-2.13,3.686,3.686,0,0,1,2.515-.9,4.344,4.344,0,0,1,2.49.591,1.349,1.349,0,0,1,.667,1.129,2.021,2.021,0,0,1-.282,1.155,4.7,4.7,0,0,1-1.129.949,20.964,20.964,0,0,1-3.465,1.695,48.443,48.443,0,0,1-4.62,1.464Q-1376.116-54.86-1376.065-52.037Zm-3.31,4.954q-3.338,2.542-4.8,3.876.795.488,2.592,1.437a4.031,4.031,0,0,0,1.746.564c.342,0,.513-.248.513-.744Q-1379.324-45.415-1379.375-47.083ZM-1363.617-65a.955.955,0,0,1,.411-.744A7.644,7.644,0,0,1-1358-67.488a10.332,10.332,0,0,1,7.007,2.516,6.91,6.91,0,0,1,2.516,5.389q0,2.413-2,2.412a2.921,2.921,0,0,1-1.566-.462,2.743,2.743,0,0,0-1.591-.693q-1,0-1.617.053a14.075,14.075,0,0,0-2,.358c-.822.172-1.251.257-1.284.257q-.411,0-.411-.257,0-.23.693-.693,3.183-2.206,3.491-2.464a1.022,1.022,0,0,0,.358-.693,1.189,1.189,0,0,0-.2-.718,6.218,6.218,0,0,0-5.6-2.85,7.3,7.3,0,0,0-2.208.333l-.513.18a1.01,1.01,0,0,1-.333.077C-1363.5-64.741-1363.617-64.827-1363.617-65Z" transform="translate(0 0.726)" fill="#333"/>
    <path id="パス_102" data-name="パス 102" d="M-1347.853-67.593a31.523,31.523,0,0,1-3.312.155,4.965,4.965,0,0,1-4.465-2,6.367,6.367,0,0,1-1.1-3.234q0-.693.411-.693.386,0,.693.515a2.961,2.961,0,0,0,1.411,1.386,6.077,6.077,0,0,0,2.208.307,19.634,19.634,0,0,0,7.213-1.54,7.474,7.474,0,0,0,1.515-.975,2.732,2.732,0,0,1,1.642-.539q1.926,0,3.414,2.31a1.71,1.71,0,0,1,.257.8q0,.9-1.206,1.31a8.928,8.928,0,0,0-3.363,2.206,36.777,36.777,0,0,0-5.724,7.033q-3.671,6.059-3.67,11.191,0,4.851,2.361,7.213a8.123,8.123,0,0,0,3.414,2.181,13.029,13.029,0,0,0,3.875.488q11.242,0,13.348-15.862a45.316,45.316,0,0,0,.436-5.826q0-.9-.076-2.643a16.984,16.984,0,0,0-1.413-6.237,5.547,5.547,0,0,1-.462-2.208,1.541,1.541,0,0,1,.847-1.36,3.554,3.554,0,0,1,1.823-.437,2.081,2.081,0,0,1,1.411.515,1.837,1.837,0,0,1,.642,1.488,17.643,17.643,0,0,0,.642,5.107,23.235,23.235,0,0,0,3.67,6.724,36.9,36.9,0,0,0,4.775,5.082A4.73,4.73,0,0,1-1314.9-51.6a2.261,2.261,0,0,1-.847,1.924,2.335,2.335,0,0,1-1.464.642q-1.693,0-4.363-3.516a34.591,34.591,0,0,1-4.825-9.112h-.333q.127,1.849.127,4.647a42.529,42.529,0,0,1-.9,10.036,17.346,17.346,0,0,1-5.647,9.521A13.592,13.592,0,0,1-1342-34.431q-6.393,0-9.626-4.107a15.287,15.287,0,0,1-3.208-9.83Q-1354.835-57.531-1347.853-67.593Z" transform="translate(14.365 1.472)" fill="#333"/>
    <path id="パス_103" data-name="パス 103" d="M-1311.624-55.812a5.358,5.358,0,0,1-1.951-3.569q-.257-1.975-.257-10.061a10.218,10.218,0,0,0-.2-2.721q-.205-.82-1.54-1.462-1.054-.539-1.566-.744c-.325-.1-.488-.223-.488-.36q0-.463.693-.848a5.449,5.449,0,0,1,2.823-.847q1.976,0,4.6,2.157a3.058,3.058,0,0,1,1.36,2.31,2.9,2.9,0,0,1-.642,1.462,5.551,5.551,0,0,0-.411,1.488,29.085,29.085,0,0,0-.307,3.26q-.1,3.312-.1,4.543a17.287,17.287,0,0,0,.1,2.13,1.285,1.285,0,0,0,1.462,1.257q.257,0,4.6-1.848a34.836,34.836,0,0,0,3.31-1.617.862.862,0,0,0,.462-.769,1.116,1.116,0,0,0-.2-.617,6.5,6.5,0,0,0-1.053-1.309c-.325-.307-.488-.513-.488-.616q0-.589,1.206-.591a4.106,4.106,0,0,1,1.8.591,11.452,11.452,0,0,1,3.312,2.617,4.519,4.519,0,0,1,1.206,2.619,1.5,1.5,0,0,1-1.464,1.591q-.539.052-3.31.668a76.521,76.521,0,0,0-9.625,2.848q-6.341,2.542-8.83,4.9a6.792,6.792,0,0,0-2.31,5.082q0,5.262,10.087,5.262,6.827,0,9.137-.95a7.125,7.125,0,0,1,2.49-.616,8.751,8.751,0,0,1,2.67.462q2.258.745,2.259,2.31a2.17,2.17,0,0,1-.513,1.591,3.767,3.767,0,0,1-1.9.873,49.085,49.085,0,0,1-10.626.848,33.983,33.983,0,0,1-9.831-1.155,10.012,10.012,0,0,1-4.722-2.952,7.111,7.111,0,0,1-1.848-4.878,10.018,10.018,0,0,1,3.209-7.366A30.889,30.889,0,0,1-1311.624-55.812Z" transform="translate(27.583 0.626)" fill="#333"/>
    <path id="パス_104" data-name="パス 104" d="M-1289.015-54.366q1.334-4.235,3-8.572a24.508,24.508,0,0,1,2.876-5.826,5.341,5.341,0,0,1,4.465-2.412q3.643,0,5.9,3.721a20.928,20.928,0,0,1,2.566,10.882q0,8.8-3.619,13.989a22.35,22.35,0,0,1-6.853,6.518,32,32,0,0,1-9.034,3.7,5.917,5.917,0,0,1-1.515.257q-.693,0-.693-.539,0-.282.949-.667,8.47-3.285,12.448-9.574a19.631,19.631,0,0,0,2.67-6.493,39.373,39.373,0,0,0,.642-7.854,27.622,27.622,0,0,0-1.053-8.727q-1.052-3.052-3.259-3.054-2.156,0-3.619,2.721a45.178,45.178,0,0,0-3.209,9.958,32.108,32.108,0,0,0-1,5.622v.385l.282,3.132q0,1.95-1.848,1.95a2.727,2.727,0,0,1-2.13-1.257,6.925,6.925,0,0,1-1.284-2.592,25.252,25.252,0,0,1-.744-7.033,73.056,73.056,0,0,1,1.284-11.473,29.9,29.9,0,0,0,.409-4.518,5.161,5.161,0,0,0-1.36-3.208q-.435-.513-.436-.668,0-.641,1.155-.642A2.813,2.813,0,0,1-1290.5-76a10.259,10.259,0,0,1,3.465,4.03,5.08,5.08,0,0,1,.642,2.259,2.3,2.3,0,0,1-.693,1.695,4.444,4.444,0,0,0-.873,1.566,29.9,29.9,0,0,0-1.9,9.137,18.1,18.1,0,0,0,.155,3.054q.077.282.282.282C-1289.239-53.982-1289.1-54.109-1289.015-54.366Z" transform="translate(38.728 0.54)" fill="#333"/>
    <path id="パス_105" data-name="パス 105" d="M-1243.7-64.862a15.5,15.5,0,0,1,4.749.924,21.4,21.4,0,0,1,3.336,1.668,12.6,12.6,0,0,1,4.851,5.03,12.643,12.643,0,0,1,1.36,5.955,12.488,12.488,0,0,1-4.62,9.7,22.993,22.993,0,0,1-9.574,4.748q-2.052.515-4.953.95a26.37,26.37,0,0,1-3.414.36q-.9,0-.9-.513,0-.411.95-.642,7.931-1.95,11.729-4.954a14.455,14.455,0,0,0,4.312-5.416,12.747,12.747,0,0,0,1.155-5.288,13.046,13.046,0,0,0-.642-4.516,9.69,9.69,0,0,0-2.257-3.312,10.258,10.258,0,0,0-7.188-2.746,126.337,126.337,0,0,1-8.881,13.886,11.756,11.756,0,0,0,.95,1.206,4,4,0,0,1,1.258,2.567,2.362,2.362,0,0,1-.488,1.513,1.222,1.222,0,0,1-1,.539,2.694,2.694,0,0,1-1.617-.564,13.6,13.6,0,0,1-1.95-2,40.686,40.686,0,0,1-3.26,3.26,17.294,17.294,0,0,1-2.412,1.719,5.484,5.484,0,0,1-2.848.744,3.727,3.727,0,0,1-3.312-1.693,8.671,8.671,0,0,1-1.258-4.62q0-7.111,7.264-13.245-.1-.436-.282-1.309-.232-1.181-.36-1.719-.436-2.052-.744-3.106a8.663,8.663,0,0,0-2.67-4.209c-.36-.308-.538-.522-.538-.642q0-.411.462-.411a6.06,6.06,0,0,1,2.026.642,13.066,13.066,0,0,1,2.31,1.309,6.085,6.085,0,0,1,2.721,3.876q.077.539.154,1.488c.052.668.111,1.31.18,1.926a31.018,31.018,0,0,1,10.986-3.312,23.366,23.366,0,0,0,.949-2.31,13.194,13.194,0,0,0,.848-3.747.907.907,0,0,0-.462-.82,5.131,5.131,0,0,0-2.645-.539q-.693,0-.693-.462c0-.172.163-.385.488-.642a4.205,4.205,0,0,1,2.566-1.053,10.351,10.351,0,0,1,5.211,1.952,2.5,2.5,0,0,1,1.308,2.155,2.483,2.483,0,0,1-.846,1.746A38.457,38.457,0,0,0-1243.7-64.862Zm-18.095,7.853q-4.21,4.185-4.21,8.83a6.7,6.7,0,0,0,.462,2.927,1.382,1.382,0,0,0,1.284.847q2.129,0,5.878-4.209A34.374,34.374,0,0,1-1261.791-57.009Zm3.208-2.335a23.553,23.553,0,0,0,3.106,7.366,68.3,68.3,0,0,0,6.417-10.831A20.829,20.829,0,0,0-1258.583-59.344Z" transform="translate(47.757 1.309)" fill="#333"/>
    <path id="パス_106" data-name="パス 106" d="M-1215.475-70.468a6.481,6.481,0,0,1,1.951,4.312,19.493,19.493,0,0,1-1.155,5.569,36.817,36.817,0,0,1-3.311,7.572,41.672,41.672,0,0,1-5.851,8.777,5.844,5.844,0,0,1-4.363,2.157,5.137,5.137,0,0,1-3.978-2.053q-2.9-3.208-2.9-9.574a15.294,15.294,0,0,1,2.259-7.983,20.886,20.886,0,0,1,7.109-7.366,23.655,23.655,0,0,1,12.705-3.414,20.415,20.415,0,0,1,13.039,4.107,16.235,16.235,0,0,1,6.16,13.346,13.916,13.916,0,0,1-4.825,10.833,24.321,24.321,0,0,1-7.8,4.671,34.845,34.845,0,0,1-10.78,2q-1.156,0-1.155-.539,0-.436,1-.667,8.495-1.874,13.526-6.879a16.265,16.265,0,0,0,3.723-5.7,18.937,18.937,0,0,0,1-6.52q0-6.673-4.62-9.882a16.53,16.53,0,0,0-8.419-2.848c-.358-.017-.787-.026-1.282-.026A16.2,16.2,0,0,0-1215.475-70.468Zm-1.746.307a16.6,16.6,0,0,0-9.086,4.209,16.636,16.636,0,0,0-4.467,6.468,13.231,13.231,0,0,0-.9,4.98,10.742,10.742,0,0,0,1.308,5.672q1.129,1.745,2.336,1.746,1.258,0,3.619-3.363a55.946,55.946,0,0,0,7.057-12.884,12.688,12.688,0,0,0,1.1-4.467A2.7,2.7,0,0,0-1217.221-70.161Z" transform="translate(60.993 2.141)" fill="#333"/>
    <path id="パス_107" data-name="パス 107" d="M-1181.108-66.018a68.22,68.22,0,0,1-.744,8.676h13.527q2.386-2.465,2.926-2.464.564,0,3.106,2.1,1.257,1.131,1.257,1.617,0,.411-1.719,1.695-.924,13.809-3.414,19.3a7.168,7.168,0,0,1-3.259,3.67,8.29,8.29,0,0,1-4.416,1.1.762.762,0,0,1-.667-.256,2.516,2.516,0,0,1-.257-.9,4.13,4.13,0,0,0-1.8-2.8,20.989,20.989,0,0,0-4.774-2.054c-.12-.051-.18-.17-.18-.36,0-.256.077-.367.231-.333a42.708,42.708,0,0,0,7.495.822,3.626,3.626,0,0,0,2.414-.719,4.721,4.721,0,0,0,1.206-2.13,44.978,44.978,0,0,0,1.488-7.7q.617-4.621.822-9.394h-14.143a40.387,40.387,0,0,1-3.312,11.293q-4.824,9.908-16.965,14.579h-.051q-.386,0-.386-.513a.2.2,0,0,1,.077-.18,33.8,33.8,0,0,0,13.219-16.093q2.772-7.6,3-18.968h-11.934a27.81,27.81,0,0,0-3.723.308l-.591-1.924a23.864,23.864,0,0,0,4.26.409h16.3V-74.1a29.052,29.052,0,0,0-.309-3.953,33.743,33.743,0,0,1,6.313.924q.95.309.95.822,0,.668-1.695,1.36v7.726h12.885q3.337-3.619,3.927-3.619.565,0,3.592,2.516,1.567,1.282,1.566,1.8c0,.343-.231.513-.693.513Z" transform="translate(73.399 0)" fill="#333"/>
    <path id="パス_108" data-name="パス 108" d="M-1149.377-59.967a13.69,13.69,0,0,1,2.167-.12,4.019,4.019,0,0,1,3.526,2.309,9.426,9.426,0,0,1,1.2,4.9,27.745,27.745,0,0,1-1.541,9.423,12.87,12.87,0,0,1-2.451,4.438q-2.351,2.492-4.053,2.493-2.108,0-2.046-1.865a3.9,3.9,0,0,0-.831-2.209,25.7,25.7,0,0,0-1.783-2.229,1.013,1.013,0,0,1-.284-.506.287.287,0,0,1,.324-.325.993.993,0,0,1,.548.243,23.294,23.294,0,0,0,2.816,1.621,4.156,4.156,0,0,0,1.58.445,1.9,1.9,0,0,0,1.581-.75,15.064,15.064,0,0,0,2.168-4.721,22.479,22.479,0,0,0,.993-6.585,9.413,9.413,0,0,0-.607-4.154,1.95,1.95,0,0,0-1.844-.913,8.728,8.728,0,0,0-2.169.325q-.627,1.336-1.945,4.173-2.756,5.858-3.89,8.186-2.311,4.743-4.114,7.72a1.957,1.957,0,0,1-1.823.913,1.537,1.537,0,0,1-1.155-.548,1.645,1.645,0,0,1-.426-1.115,4.177,4.177,0,0,1,.79-2.229,140.277,140.277,0,0,0,9.159-16.028q-2.938,1.135-4.518,1.825a12.712,12.712,0,0,0-1.195.587,1.5,1.5,0,0,1-1.075.365,3.6,3.6,0,0,1-2.329-1.115,5.317,5.317,0,0,1-1.155-1.479,2.965,2.965,0,0,1-.426-1.338q0-1.5.628-1.5.224,0,.527.447,1.135,1.459,2.128,1.458a19.351,19.351,0,0,0,3.566-.506q.264-.041,4.8-1.155,1.965-4.965,1.966-6.626a1.3,1.3,0,0,0-.628-1.216,10.954,10.954,0,0,0-1.621-.689q-.629-.243-.628-.426,0-.525.708-.75a6.5,6.5,0,0,1,2.026-.324,5.115,5.115,0,0,1,2.411.771,6.9,6.9,0,0,1,1.966,1.6,1.816,1.816,0,0,1,.365,1.155,1.641,1.641,0,0,1-.952,1.338,2.666,2.666,0,0,0-.871,1.277q-.2.486-.75,1.62Zm15.44,11.652q-1.48,0-3.2.082-.913.081-1.236.08c-.31,0-.466-.094-.466-.284,0-.148.122-.277.365-.385q5.046-1.986,5.045-2.9a6.458,6.458,0,0,0-1.235-3.4,13.286,13.286,0,0,0-2.209-2.634,10.351,10.351,0,0,0-2.573-1.6c-.5-.2-.75-.4-.75-.588q0-.4.628-.405l.284.04a11.9,11.9,0,0,1,6.727,3.446A11.511,11.511,0,0,1-1129.8-53.1a9.842,9.842,0,0,1,.731,3.911,2.38,2.38,0,0,1-.67,1.825,1.793,1.793,0,0,1-1.073.466H-1131a1.965,1.965,0,0,1-1.519-.67A2.111,2.111,0,0,0-1133.936-48.315Zm-5.026-19.412a8,8,0,0,1,3.446,1.439,3.276,3.276,0,0,1,1.54,2.493,1.488,1.488,0,0,1-.385,1.033,1.28,1.28,0,0,1-.993.426,1.575,1.575,0,0,1-1.4-.953,17.4,17.4,0,0,0-2.615-3.667c-.31-.3-.466-.473-.466-.527a.243.243,0,0,1,.2-.243,1.389,1.389,0,0,1,.365-.04A.778.778,0,0,1-1138.962-67.727Zm3.324-2.614a9.089,9.089,0,0,1,3.93,1.277,2.67,2.67,0,0,1,1.5,2.128,1.631,1.631,0,0,1-.425,1.176,1.166,1.166,0,0,1-.851.365,1.71,1.71,0,0,1-1.541-.913,11.232,11.232,0,0,0-2.9-3.262q-.508-.365-.508-.486a.267.267,0,0,1,.122-.264.83.83,0,0,1,.325-.061A2.164,2.164,0,0,1-1135.638-70.342Z" transform="translate(88.168 2.942)" fill="#333"/>
    <path id="パス_109" data-name="パス 109" d="M-1087.443-37.118q-2.156.874-3.465,4.054-.411,1-.95,1a6.184,6.184,0,0,1-2.515-1.36,37.587,37.587,0,0,1-10.216-10.831,50.942,50.942,0,0,1-5.929-15.631,45.512,45.512,0,0,1-10.343,18.044,42.805,42.805,0,0,1-14.58,10.394h-.051q-.384,0-.385-.513a.2.2,0,0,1,.077-.18q9.727-6.468,15.81-18.4a63.051,63.051,0,0,0,6.674-22.742h-7.239a32.731,32.731,0,0,0-3.414.36l-.589-2.079a18.231,18.231,0,0,0,3.85.513h6.391q1.849-2.156,2.413-2.157.589,0,2.412,1.643.951.847.95,1.36a.868.868,0,0,1-.488.719q-.461.257-2.182,1,1.616,16.631,10.729,25.821a39.06,39.06,0,0,0,13.013,8.393.331.331,0,0,1,.206.308A.282.282,0,0,1-1087.443-37.118Z" transform="translate(99.02 0.54)" fill="#333"/>
    <path id="パス_110" data-name="パス 110" d="M-1075.058-64.357q-1,12.116-4.927,18.583a32.572,32.572,0,0,1-8.625,9.6,36.729,36.729,0,0,1-10.574,5.16.108.108,0,0,1-.077.025c-.239,0-.36-.145-.36-.436a.17.17,0,0,1,.078-.154,40.678,40.678,0,0,0,10.344-8.368,35.733,35.733,0,0,0,5.774-9.445q2.26-5.468,2.9-14.965h-11.833a20.556,20.556,0,0,0-3.926.411l-.591-2.028a27.737,27.737,0,0,0,4.568.411h11.884q.206-3.131.206-7.623a35.173,35.173,0,0,0-.309-4.516,54.781,54.781,0,0,1,6.6.9q.948.284.949,1,0,.8-1.668,1.464l-.051,3.952q-.052,1.874-.257,4.825h12.834q2.257-2.72,2.823-2.721.693,0,3.208,2.105,1.359,1.156,1.361,1.771,0,.566-1.772,1.848-.693,17.994-3,25.283a8.122,8.122,0,0,1-4.157,5.185,9.324,9.324,0,0,1-4.107.847,1.068,1.068,0,0,1-1.1-1,4.143,4.143,0,0,0-1.8-2.721,21.3,21.3,0,0,0-4.825-2.1.311.311,0,0,1-.155-.308c0-.29.086-.418.257-.385a70.917,70.917,0,0,0,8.008.8,3.013,3.013,0,0,0,2.13-.693,4.906,4.906,0,0,0,1.13-2.208,55.376,55.376,0,0,0,1.771-10.01q.488-5.158.744-14.476Z" transform="translate(112.917 0.135)" fill="#333"/>
    <path id="パス_111" data-name="パス 111" d="M-1054.126-60.946a4.648,4.648,0,0,0-.368.57,50.483,50.483,0,0,0-.587,6.044q-.4,5.407-.4,8.873,0,2.529.787,3.265a5.13,5.13,0,0,0,3.3.787,16.3,16.3,0,0,0,7.466-2.093,19.43,19.43,0,0,0,5.994-4.622q.386-.45.62-.451c.224,0,.335.118.335.351a2.933,2.933,0,0,1-.451.954,19.637,19.637,0,0,1-5.961,6.093,16.644,16.644,0,0,1-4.068,2.027,16.292,16.292,0,0,1-5.073.754,5.216,5.216,0,0,1-4.353-1.909,7.048,7.048,0,0,1-1.339-4.5v-.267q.083-3.164.267-9.041.168-5.206.235-7.533a2.718,2.718,0,0,0-.268-1.508,2.1,2.1,0,0,0-1.038-.753q-1.056-.386-1.055-.587c0-.212.195-.419.587-.62a3.813,3.813,0,0,1,1.574-.3,5.284,5.284,0,0,1,3.3,1.541,2.38,2.38,0,0,1,.988,1.758A2.047,2.047,0,0,1-1054.126-60.946Z" transform="translate(128.07 4.845)" fill="#333"/>
    <path id="パス_112" data-name="パス 112" d="M-1032.94-56.652q-1.156.066-2.562.066a4.676,4.676,0,0,1-4.536-2.746,1.327,1.327,0,0,1-.169-.452.267.267,0,0,1,.3-.3c.079,0,.185.068.318.2q1.139,1.239,4.252,1.238a52.628,52.628,0,0,0,7.031-.786V-62.8q0-1.407-.318-1.707a2.029,2.029,0,0,0-.953-.419,7.3,7.3,0,0,0-.8-.134c-.134,0-.2-.077-.2-.234s.14-.375.419-.653a1.844,1.844,0,0,1,1.374-.587,5.281,5.281,0,0,1,2.645.853q1.473.871,1.473,1.758a1.387,1.387,0,0,1-.485.954,2.151,2.151,0,0,0-.653,1.306c-.011.19-.046.546-.1,1.072-.033.322-.055.591-.066.8q1.622-.249,3.365-.62a8.041,8.041,0,0,0,1.941-.618,3.411,3.411,0,0,1,1.692-.335,2.814,2.814,0,0,1,1.791.62,1.486,1.486,0,0,1,.67,1.137,1.073,1.073,0,0,1-.519,1.055,5.862,5.862,0,0,1-1.741.351q-4.555.4-7.3.787-.033,1.189-.033,2.511t.033,2.63a15.735,15.735,0,0,0,2.963-.721c.235-.1.353-.234.353-.4a2.367,2.367,0,0,0-.217-.7,9.932,9.932,0,0,0-.754-1.3.43.43,0,0,1-.051-.185.133.133,0,0,1,.151-.151.465.465,0,0,1,.268.118,21.826,21.826,0,0,0,1.876,1.256,2.075,2.075,0,0,0,1.021.318h.25q1.608,0,1.607,1.239a1.04,1.04,0,0,1-.586.869,7.451,7.451,0,0,1-1.255.57,26.96,26.96,0,0,1-5.558,1.389q.014,1.089.335,5.326a25.731,25.731,0,0,1,6.932,3.013q2.058,1.222,2.058,2.713a1.582,1.582,0,0,1-.4,1.087,1.16,1.16,0,0,1-.9.419,1.951,1.951,0,0,1-1.272-.552,22.27,22.27,0,0,0-6.162-4.153v.452q0,4.654-5.357,4.653a7.244,7.244,0,0,1-4.353-1.172,3.591,3.591,0,0,1-1.641-2.98,3.332,3.332,0,0,1,1.708-2.746,8.131,8.131,0,0,1,3.265-1.021,11.543,11.543,0,0,1,1.707-.1q.838,0,1.96.068,0-2.513-.1-4.721-.886.066-2.779.066-4.905,0-4.905-2.847a4.341,4.341,0,0,1,1.306-2.845A12.739,12.739,0,0,1-1032.94-56.652Zm4.839,13.745a13.855,13.855,0,0,0-3.165-.418c-.267,0-.524.01-.769.033a6.751,6.751,0,0,0-2.645.653,1.659,1.659,0,0,0-.855,1.405,1.672,1.672,0,0,0,1.089,1.541,6.68,6.68,0,0,0,2.946.452,3.663,3.663,0,0,0,2.847-.954A4.488,4.488,0,0,0-1028.1-42.907Zm-3.432-13.711a6.291,6.291,0,0,0-1.959,1.44,3.167,3.167,0,0,0-.954,1.891q0,1.509,2.746,1.508a31.213,31.213,0,0,0,3.432-.219q0-3.247-.034-5.073-.668.085-1.674.235Z" transform="translate(135.691 4.418)" fill="#333"/>
    <path id="パス_113" data-name="パス 113" d="M-1000.449-59.631q3.583-.286,5.391-.487a5.961,5.961,0,0,0,1.541-.335,3.047,3.047,0,0,1,1.139-.351,6.221,6.221,0,0,1,3.432.954,1.846,1.846,0,0,1,.988,1.607q0,.971-1.105,1.021a1.613,1.613,0,0,1-.252.017,6.948,6.948,0,0,1-1.422-.184,20.512,20.512,0,0,0-3.851-.569q-3.281,0-5.961.2-.1,5.258-.1,5.492a10.2,10.2,0,0,1,.854,4.118,9.986,9.986,0,0,1-4.118,8.054,15.645,15.645,0,0,1-6.145,2.879,8.271,8.271,0,0,1-1.909.351c-.324,0-.485-.116-.485-.351q0-.317.419-.469,7.2-2.561,8.906-7.969a3.857,3.857,0,0,1-1.841.419h-.167a4.171,4.171,0,0,1-2.477-.938,4.111,4.111,0,0,1-1.473-3.314,4.118,4.118,0,0,1,1.44-3.314,4.389,4.389,0,0,1,2.847-1.072,7.152,7.152,0,0,1,1.74.2v-1.155q0-.954-.033-2.645a67.41,67.41,0,0,0-8.287,1.506,7.042,7.042,0,0,0-2.027.888,2.021,2.021,0,0,1-1.137.385,3.338,3.338,0,0,1-2.194-1.072q-1.641-1.54-1.641-2.578a1.331,1.331,0,0,1,.1-.552.379.379,0,0,1,.353-.268.463.463,0,0,1,.3.167,4.6,4.6,0,0,0,3.013,1.289,22.807,22.807,0,0,0,2.444-.318q4.353-.72,9.075-1.306,0-.82-.067-3.5a3.239,3.239,0,0,0-.135-1.19,1,1,0,0,0-.92-.585l-1.306-.134c-.257-.044-.385-.14-.385-.285q0-.284.552-.719a2.815,2.815,0,0,1,1.808-.787,5.734,5.734,0,0,1,3.1,1.138q.988.652.987,1.322a1.446,1.446,0,0,1-.469,1,1.133,1.133,0,0,0-.385.721Q-1000.4-61.24-1000.449-59.631Zm-4.387,6.863a2.306,2.306,0,0,0-1.707.654,2.553,2.553,0,0,0-.721,1.891,2.686,2.686,0,0,0,.62,1.841,2.263,2.263,0,0,0,1.808.754,2.077,2.077,0,0,0,1.54-.587,2.7,2.7,0,0,0,.621-1.975,2.954,2.954,0,0,0-.52-1.825A1.961,1.961,0,0,0-1004.835-52.769Z" transform="translate(144.057 4.418)" fill="#333"/>
  </g>
</svg>
